<mxfile host="app.diagrams.net" modified="2024-02-24T10:17:53.697Z" agent="Mozilla/5.0 (Windows NT 10.0; Win64; x64) AppleWebKit/537.36 (KHTML, like Gecko) Chrome/122.0.0.0 Safari/537.36" etag="PVW_j0Fe_PwZ3CBH6ooB" version="23.1.6" type="github">
  <diagram name="Page-1" id="u4DBzuf25WSnW57CmH9x">
    <mxGraphModel dx="1814" dy="570" grid="1" gridSize="10" guides="1" tooltips="1" connect="1" arrows="1" fold="1" page="1" pageScale="1" pageWidth="850" pageHeight="1100" background="#4f4f4f" math="0" shadow="0">
      <root>
        <mxCell id="0" />
        <mxCell id="1" parent="0" />
        <mxCell id="dwTxzl66NhwE89-aU_7r-1" value="Pooh" style="rounded=0;whiteSpace=wrap;html=1;fillColor=#76608a;fontColor=#ffffff;strokeColor=#432D57;" vertex="1" parent="1">
          <mxGeometry x="280" y="120" width="120" height="60" as="geometry" />
        </mxCell>
        <mxCell id="dwTxzl66NhwE89-aU_7r-10" style="edgeStyle=orthogonalEdgeStyle;rounded=0;orthogonalLoop=1;jettySize=auto;html=1;strokeColor=#CCCCCC;" edge="1" parent="1" source="dwTxzl66NhwE89-aU_7r-2" target="dwTxzl66NhwE89-aU_7r-1">
          <mxGeometry relative="1" as="geometry" />
        </mxCell>
        <mxCell id="dwTxzl66NhwE89-aU_7r-2" value="ChristopherRobin" style="rounded=0;whiteSpace=wrap;html=1;fillColor=#647687;fontColor=#ffffff;strokeColor=#314354;" vertex="1" parent="1">
          <mxGeometry x="425" y="120" width="120" height="60" as="geometry" />
        </mxCell>
        <mxCell id="dwTxzl66NhwE89-aU_7r-8" style="edgeStyle=orthogonalEdgeStyle;rounded=0;orthogonalLoop=1;jettySize=auto;html=1;strokeColor=#CCCCCC;" edge="1" parent="1" source="dwTxzl66NhwE89-aU_7r-3" target="dwTxzl66NhwE89-aU_7r-1">
          <mxGeometry relative="1" as="geometry" />
        </mxCell>
        <mxCell id="dwTxzl66NhwE89-aU_7r-3" value="VinnyPooh" style="rounded=0;whiteSpace=wrap;html=1;fillColor=#647687;fontColor=#ffffff;strokeColor=#314354;" vertex="1" parent="1">
          <mxGeometry x="280" y="210" width="120" height="60" as="geometry" />
        </mxCell>
        <mxCell id="dwTxzl66NhwE89-aU_7r-9" style="edgeStyle=orthogonalEdgeStyle;rounded=0;orthogonalLoop=1;jettySize=auto;html=1;strokeColor=#CCCCCC;" edge="1" parent="1" source="dwTxzl66NhwE89-aU_7r-4" target="dwTxzl66NhwE89-aU_7r-1">
          <mxGeometry relative="1" as="geometry" />
        </mxCell>
        <mxCell id="dwTxzl66NhwE89-aU_7r-4" value="Piglet" style="rounded=0;whiteSpace=wrap;html=1;fillColor=#647687;fontColor=#ffffff;strokeColor=#314354;" vertex="1" parent="1">
          <mxGeometry x="120" y="120" width="120" height="60" as="geometry" />
        </mxCell>
        <mxCell id="dwTxzl66NhwE89-aU_7r-6" style="edgeStyle=orthogonalEdgeStyle;rounded=0;orthogonalLoop=1;jettySize=auto;html=1;strokeColor=#CCCCCC;" edge="1" parent="1" source="dwTxzl66NhwE89-aU_7r-5" target="dwTxzl66NhwE89-aU_7r-2">
          <mxGeometry relative="1" as="geometry" />
        </mxCell>
        <mxCell id="dwTxzl66NhwE89-aU_7r-7" style="edgeStyle=orthogonalEdgeStyle;rounded=0;orthogonalLoop=1;jettySize=auto;html=1;strokeColor=#CCCCCC;" edge="1" parent="1" source="dwTxzl66NhwE89-aU_7r-5" target="dwTxzl66NhwE89-aU_7r-4">
          <mxGeometry relative="1" as="geometry" />
        </mxCell>
        <mxCell id="dwTxzl66NhwE89-aU_7r-11" style="edgeStyle=orthogonalEdgeStyle;rounded=0;orthogonalLoop=1;jettySize=auto;html=1;strokeColor=#CCCCCC;" edge="1" parent="1" source="dwTxzl66NhwE89-aU_7r-5" target="dwTxzl66NhwE89-aU_7r-3">
          <mxGeometry relative="1" as="geometry" />
        </mxCell>
        <mxCell id="dwTxzl66NhwE89-aU_7r-5" value="RobinGroup" style="rounded=0;whiteSpace=wrap;html=1;fillColor=#fa6800;fontColor=#000000;strokeColor=#C73500;" vertex="1" parent="1">
          <mxGeometry x="280" y="320" width="120" height="60" as="geometry" />
        </mxCell>
        <mxCell id="dwTxzl66NhwE89-aU_7r-15" style="edgeStyle=orthogonalEdgeStyle;rounded=0;orthogonalLoop=1;jettySize=auto;html=1;strokeColor=#CCCCCC;" edge="1" parent="1" source="dwTxzl66NhwE89-aU_7r-12" target="dwTxzl66NhwE89-aU_7r-5">
          <mxGeometry relative="1" as="geometry" />
        </mxCell>
        <mxCell id="dwTxzl66NhwE89-aU_7r-12" value="canRun" style="rounded=0;whiteSpace=wrap;html=1;fillColor=#f0a30a;fontColor=#000000;strokeColor=#BD7000;" vertex="1" parent="1">
          <mxGeometry x="210" y="420" width="120" height="60" as="geometry" />
        </mxCell>
        <mxCell id="dwTxzl66NhwE89-aU_7r-14" style="edgeStyle=orthogonalEdgeStyle;rounded=0;orthogonalLoop=1;jettySize=auto;html=1;strokeColor=#CCCCCC;" edge="1" parent="1" source="dwTxzl66NhwE89-aU_7r-13" target="dwTxzl66NhwE89-aU_7r-5">
          <mxGeometry relative="1" as="geometry" />
        </mxCell>
        <mxCell id="dwTxzl66NhwE89-aU_7r-13" value="canListen" style="rounded=0;whiteSpace=wrap;html=1;fillColor=#f0a30a;fontColor=#000000;strokeColor=#BD7000;" vertex="1" parent="1">
          <mxGeometry x="350" y="420" width="120" height="60" as="geometry" />
        </mxCell>
        <mxCell id="dwTxzl66NhwE89-aU_7r-22" style="rounded=0;orthogonalLoop=1;jettySize=auto;html=1;strokeColor=#CCCCCC;" edge="1" parent="1" source="dwTxzl66NhwE89-aU_7r-16" target="dwTxzl66NhwE89-aU_7r-4">
          <mxGeometry relative="1" as="geometry" />
        </mxCell>
        <mxCell id="dwTxzl66NhwE89-aU_7r-23" style="rounded=0;orthogonalLoop=1;jettySize=auto;html=1;strokeColor=#CCCCCC;" edge="1" parent="1" source="dwTxzl66NhwE89-aU_7r-16" target="dwTxzl66NhwE89-aU_7r-2">
          <mxGeometry relative="1" as="geometry" />
        </mxCell>
        <mxCell id="dwTxzl66NhwE89-aU_7r-24" style="rounded=0;orthogonalLoop=1;jettySize=auto;html=1;strokeColor=#CCCCCC;" edge="1" parent="1" source="dwTxzl66NhwE89-aU_7r-16" target="dwTxzl66NhwE89-aU_7r-3">
          <mxGeometry relative="1" as="geometry" />
        </mxCell>
        <mxCell id="dwTxzl66NhwE89-aU_7r-25" style="rounded=0;orthogonalLoop=1;jettySize=auto;html=1;strokeColor=#CCCCCC;" edge="1" parent="1" source="dwTxzl66NhwE89-aU_7r-16" target="dwTxzl66NhwE89-aU_7r-5">
          <mxGeometry relative="1" as="geometry" />
        </mxCell>
        <mxCell id="dwTxzl66NhwE89-aU_7r-16" value="Location" style="rounded=0;whiteSpace=wrap;html=1;fillColor=#6d8764;fontColor=#ffffff;strokeColor=#3A5431;" vertex="1" parent="1">
          <mxGeometry x="-70" y="260" width="120" height="60" as="geometry" />
        </mxCell>
        <mxCell id="dwTxzl66NhwE89-aU_7r-18" style="rounded=0;orthogonalLoop=1;jettySize=auto;html=1;strokeColor=#CCCCCC;" edge="1" parent="1" source="dwTxzl66NhwE89-aU_7r-17" target="dwTxzl66NhwE89-aU_7r-2">
          <mxGeometry relative="1" as="geometry" />
        </mxCell>
        <mxCell id="dwTxzl66NhwE89-aU_7r-20" style="rounded=0;orthogonalLoop=1;jettySize=auto;html=1;strokeColor=#CCCCCC;" edge="1" parent="1" source="dwTxzl66NhwE89-aU_7r-17" target="dwTxzl66NhwE89-aU_7r-4">
          <mxGeometry relative="1" as="geometry" />
        </mxCell>
        <mxCell id="dwTxzl66NhwE89-aU_7r-21" style="rounded=0;orthogonalLoop=1;jettySize=auto;html=1;strokeColor=#CCCCCC;" edge="1" parent="1" source="dwTxzl66NhwE89-aU_7r-17" target="dwTxzl66NhwE89-aU_7r-3">
          <mxGeometry relative="1" as="geometry" />
        </mxCell>
        <mxCell id="dwTxzl66NhwE89-aU_7r-17" value="StoryType" style="rounded=0;whiteSpace=wrap;html=1;fillColor=#6d8764;fontColor=#ffffff;strokeColor=#3A5431;" vertex="1" parent="1">
          <mxGeometry x="630" y="260" width="120" height="60" as="geometry" />
        </mxCell>
      </root>
    </mxGraphModel>
  </diagram>
</mxfile>
